<svg width="25" height="26" viewBox="0 0 25 26" fill="none" xmlns="http://www.w3.org/2000/svg">
    <g opacity="0.8" clip-path="url(#clip0_72_25)">
    <path d="M12.5003 7.69963C15.3753 7.69963 17.7087 10.033 17.7087 12.908C17.7087 13.585 17.5732 14.2205 17.3337 14.8142L20.3753 17.8559C21.9482 16.5434 23.1878 14.8455 23.9482 12.908C22.1462 8.33504 17.6982 5.09546 12.4899 5.09546C11.0316 5.09546 9.63574 5.35588 8.34408 5.82463L10.5941 8.07463C11.1878 7.83504 11.8232 7.69963 12.5003 7.69963ZM2.08366 4.85588L4.45866 7.23088L4.93783 7.71004C3.20866 9.05379 1.85449 10.8455 1.04199 12.908C2.84408 17.4809 7.29199 20.7205 12.5003 20.7205C14.1149 20.7205 15.6566 20.408 17.0628 19.8455L17.5003 20.283L20.5524 23.3246L21.8753 22.0017L3.40658 3.53296L2.08366 4.85588ZM7.84408 10.6163L9.45866 12.2309C9.40658 12.4496 9.37533 12.6788 9.37533 12.908C9.37533 14.6371 10.7712 16.033 12.5003 16.033C12.7295 16.033 12.9587 16.0017 13.1774 15.9496L14.792 17.5642C14.0941 17.908 13.3232 18.1163 12.5003 18.1163C9.62533 18.1163 7.29199 15.783 7.29199 12.908C7.29199 12.085 7.50033 11.3142 7.84408 10.6163ZM12.3337 9.80379L15.6149 13.085L15.6357 12.9184C15.6357 11.1892 14.2399 9.79338 12.5107 9.79338L12.3337 9.80379Z" fill="#9E9E9E"/>
    </g>
    <defs>
    <clipPath id="clip0_72_25">
    <rect width="25" height="25" fill="white" transform="translate(0 0.407959)"/>
    </clipPath>
    </defs>
</svg>
